<?xml version="1.0" standalone="no"?>
<!DOCTYPE svg PUBLIC "-//W3C//DTD SVG 20010904//EN"
 "http://www.w3.org/TR/2001/REC-SVG-20010904/DTD/svg10.dtd">
<svg version="1.0" xmlns="http://www.w3.org/2000/svg"
 width="2560.000000pt" height="2560.000000pt" viewBox="0 0 2560.000000 2560.000000"
 preserveAspectRatio="xMidYMid meet">

<g transform="translate(0.000000,2560.000000) scale(0.100000,-0.100000)"
fill="#000000" stroke="none">
<path d="M0 12800 l0 -12800 12800 0 12800 0 0 12800 0 12800 -12800 0 -12800
0 0 -12800z m5067 11295 c221 -29 402 -86 643 -201 302 -146 526 -336 697
-594 49 -74 1499 -2301 3223 -4948 2538 -3899 3135 -4811 3145 -4800 7 7 1407
2097 3110 4643 1704 2547 3187 4763 3296 4925 255 380 349 486 575 652 149
109 402 231 584 281 422 118 929 46 1325 -188 201 -119 458 -353 588 -535 162
-228 266 -510 297 -802 6 -60 10 -3118 10 -8663 0 -7600 -2 -8585 -15 -8700
-50 -425 -213 -764 -510 -1060 -308 -307 -705 -466 -1205 -482 -575 -19 -1048
144 -1397 481 -287 276 -441 577 -510 996 -16 98 -18 484 -23 6088 l-5 5983
-2410 -3688 -2410 -3688 -145 -145 c-321 -322 -656 -517 -990 -576 -134 -24
-490 -24 -615 0 -310 60 -588 212 -899 490 -198 178 -55 -40 -2651 4064
l-2410 3811 -6 -6152 c-4 -4548 -8 -6168 -17 -6212 -50 -265 -92 -397 -178
-570 -83 -163 -171 -283 -313 -426 -250 -249 -512 -380 -886 -441 -107 -17
-476 -17 -575 0 -120 22 -265 60 -346 92 -505 201 -871 646 -995 1213 -52 233
-49 -300 -49 8917 0 5675 4 8605 10 8665 24 212 69 366 164 560 125 255 315
475 581 676 355 268 851 394 1312 334z m12420 -21219 l28 -24 0 -507 0 -507
-28 -24 c-37 -32 -87 -32 -124 0 l-28 24 0 507 0 507 28 24 c18 15 41 24 62
24 21 0 44 -9 62 -24z m-4040 -54 c11 -9 96 -131 188 -271 l166 -254 170 254
c93 140 179 262 190 272 33 27 85 22 120 -12 l29 -29 0 -467 0 -467 -29 -29
c-36 -35 -92 -39 -131 -9 l-25 19 -5 320 -5 320 -125 -185 c-69 -102 -133
-193 -143 -202 -27 -24 -82 -20 -111 7 -14 13 -78 106 -143 207 l-118 183 -5
-322 c-3 -177 -7 -323 -8 -324 -54 -53 -103 -59 -143 -17 l-24 26 -3 456 c-3
479 -1 497 42 527 28 20 86 18 113 -3z m5391 3 c115 -27 162 -62 162 -120 0
-37 -16 -62 -51 -81 -28 -14 -35 -14 -97 5 -149 46 -259 34 -362 -38 -247
-173 -173 -545 124 -618 58 -14 81 -15 152 -5 47 6 89 14 94 17 6 3 10 49 10
101 l0 94 -89 0 c-80 0 -93 3 -118 24 -22 19 -28 32 -28 66 0 34 6 47 28 66
27 23 34 24 188 24 l161 0 29 -29 29 -29 0 -190 c0 -221 1 -219 -102 -270
-123 -60 -288 -79 -413 -47 -243 64 -415 277 -415 515 0 236 170 449 411 514
71 19 208 20 287 1z m-3873 -216 c280 -52 421 -369 279 -628 -37 -68 -100
-126 -182 -164 -63 -30 -74 -32 -178 -32 -107 0 -112 1 -186 37 -111 55 -181
142 -212 263 -62 234 77 472 304 521 71 16 103 16 175 3z m1061 -29 c76 -37
136 -101 177 -188 27 -58 32 -80 35 -169 5 -126 -17 -211 -77 -295 -118 -164
-341 -196 -508 -72 l-23 16 0 -164 c0 -165 0 -165 -26 -192 -36 -35 -95 -36
-129 -1 l-25 24 0 504 0 504 26 27 c19 19 37 26 64 26 42 0 90 -39 90 -72 0
-18 3 -18 31 6 107 90 240 107 365 46z m781 15 c27 -8 67 -26 87 -40 38 -25
56 -25 56 0 0 23 50 55 86 55 20 0 44 -9 61 -24 l28 -24 0 -362 0 -362 -28
-24 c-49 -42 -126 -25 -147 32 l-9 23 -50 -33 c-101 -68 -240 -74 -350 -16
-112 60 -183 165 -204 301 -33 212 79 419 256 475 57 17 153 17 214 -1z m2910
-5 c51 -31 56 -97 12 -141 -19 -19 -28 -20 -73 -14 -134 19 -169 6 -216 -76
-24 -43 -25 -50 -28 -281 l-4 -237 -25 -25 c-35 -35 -94 -36 -128 -1 l-25 24
0 351 0 351 25 24 c34 35 93 34 129 -1 14 -15 26 -37 26 -49 0 -19 5 -17 44
21 74 71 195 96 263 54z m1583 -2 c49 -15 124 -63 161 -106 18 -20 45 -65 62
-100 25 -53 31 -81 35 -158 6 -117 -14 -199 -67 -282 -112 -172 -340 -214
-510 -93 l-31 22 0 -164 c0 -164 0 -164 -26 -191 -36 -35 -95 -36 -129 -1
l-25 24 0 501 0 501 25 24 c34 35 93 34 129 -1 14 -15 26 -36 26 -46 0 -18 3
-18 31 7 90 75 201 97 319 63z m950 -15 c82 -39 136 -86 177 -154 60 -101 77
-220 48 -334 -33 -127 -104 -212 -223 -268 -63 -30 -74 -32 -177 -32 -103 0
-114 2 -177 32 -119 56 -190 141 -223 268 -49 190 35 392 200 478 74 38 117
47 215 44 82 -2 104 -7 160 -34z m-2202 -9 c21 -24 22 -31 22 -245 0 -245 7
-293 52 -336 27 -26 35 -28 113 -28 69 0 87 3 105 20 51 46 54 64 60 327 5
240 6 248 28 270 33 34 97 31 128 -5 24 -28 24 -29 24 -277 0 -202 -3 -258
-16 -296 -48 -141 -160 -214 -330 -214 -149 0 -257 58 -311 168 l-28 57 -3
263 c-3 230 -1 267 13 288 33 50 102 54 143 8z m-7538 -379 l0 -295 -4700 0
-4700 0 0 295 0 295 4700 0 4700 0 0 -295z"/>
<path d="M14830 2441 c-109 -35 -169 -119 -170 -235 0 -79 16 -128 59 -177
112 -132 318 -91 380 74 30 78 3 216 -52 275 -48 52 -156 83 -217 63z"/>
<path d="M15779 2437 c-101 -38 -149 -115 -149 -236 0 -155 84 -251 217 -251
128 1 215 102 215 249 0 142 -75 234 -200 247 -27 2 -63 -2 -83 -9z"/>
<path d="M16633 2419 c-150 -74 -164 -335 -25 -433 58 -41 151 -48 216 -16
171 82 163 384 -11 456 -49 21 -131 17 -180 -7z"/>
<path d="M21096 2426 c-60 -22 -88 -48 -118 -106 -24 -44 -28 -64 -28 -129 0
-88 20 -139 71 -188 43 -41 77 -53 145 -53 72 0 112 18 157 71 48 55 60 98 56
191 -4 62 -9 83 -35 124 -51 84 -159 123 -248 90z"/>
<path d="M21972 2419 c-79 -40 -121 -119 -122 -230 0 -85 36 -159 99 -204 39
-28 50 -30 126 -30 76 0 87 2 126 30 134 94 134 326 0 420 -36 25 -53 30 -114
33 -58 2 -80 -1 -115 -19z"/>
</g>
</svg>
