<?xml version="1.0" standalone="no"?>
<!DOCTYPE svg PUBLIC "-//W3C//DTD SVG 20010904//EN"
 "http://www.w3.org/TR/2001/REC-SVG-20010904/DTD/svg10.dtd">
<svg version="1.0" xmlns="http://www.w3.org/2000/svg"
 width="2560.000000pt" height="2560.000000pt" viewBox="0 0 2560.000000 2560.000000"
 preserveAspectRatio="xMidYMid meet">

<g transform="translate(0.000000,2560.000000) scale(0.100000,-0.100000)"
fill="#000000" stroke="none">
<path d="M0 12800 l0 -12800 12800 0 12800 0 0 12800 0 12800 -12800 0 -12800
0 0 -12800z m7320 8155 c126 -27 249 -72 385 -140 224 -112 372 -241 500 -436
36 -54 1080 -1658 2321 -3566 1241 -1907 2259 -3471 2263 -3476 4 -4 1083
1600 2397 3565 l2389 3573 110 111 c123 123 212 188 360 262 205 102 366 137
585 129 250 -11 458 -77 660 -212 275 -184 471 -446 546 -730 46 -172 44 137
44 -6470 0 -6779 3 -6318 -55 -6520 -62 -213 -162 -381 -321 -538 -178 -177
-390 -285 -654 -334 -146 -27 -439 -24 -588 5 -378 75 -665 272 -852 582 -76
126 -127 272 -162 461 -8 48 -13 1159 -17 4397 l-6 4334 -1735 -2659 -1735
-2658 -125 -125 c-206 -207 -427 -343 -640 -397 -94 -24 -125 -27 -285 -27
-114 -1 -202 4 -240 12 -245 54 -469 186 -690 407 l-120 120 -1745 2762 -1745
2762 -5 -4472 -6 -4472 -21 -85 c-48 -202 -97 -319 -187 -454 -214 -319 -525
-490 -931 -512 -354 -19 -656 85 -890 307 -217 207 -346 473 -385 799 -8 70
-10 1732 -8 6355 3 5995 4 6263 21 6335 64 266 182 470 377 653 208 197 438
313 716 362 103 18 370 12 474 -10z m8879 -15351 c20 -26 21 -38 21 -369 0
-331 -1 -343 -21 -369 -25 -32 -70 -35 -99 -6 -19 19 -20 33 -20 375 0 342 1
356 20 375 29 29 74 26 99 -6z m1033 -22 c57 -25 77 -59 60 -97 -18 -39 -46
-44 -126 -23 -85 22 -98 22 -165 2 -104 -30 -181 -135 -181 -244 1 -95 57
-187 145 -233 42 -22 152 -29 208 -14 26 7 27 10 27 77 l0 70 -65 0 c-73 0
-105 20 -105 65 0 14 9 34 20 45 18 18 33 20 138 20 161 0 157 4 157 -182 l0
-140 -33 -28 c-114 -95 -347 -91 -477 8 -107 81 -160 184 -160 312 0 45 7 95
18 125 36 106 143 209 252 245 81 27 219 23 287 -8z m-3967 -8 c9 -4 72 -89
139 -190 113 -170 124 -183 138 -167 8 10 63 90 123 178 59 88 115 166 123
173 27 21 69 14 91 -14 20 -26 21 -38 21 -341 0 -362 -2 -372 -76 -373 -60 0
-63 12 -66 255 l-3 218 -79 -114 c-115 -167 -132 -182 -181 -163 -9 4 -59 70
-111 148 l-94 141 0 -220 c0 -250 -4 -265 -65 -265 -64 0 -65 5 -65 372 0 315
1 329 20 348 20 20 54 26 85 14z m1179 -178 c105 -52 159 -142 160 -267 0 -63
-5 -86 -28 -132 -56 -115 -163 -174 -295 -165 -161 12 -271 131 -271 293 0 75
13 121 48 173 82 122 250 165 386 98z m684 8 c100 -50 156 -148 156 -274 0
-224 -194 -364 -377 -272 l-55 28 -4 -107 c-3 -88 -7 -111 -22 -128 -24 -27
-70 -27 -96 -1 -19 19 -20 33 -20 375 0 342 1 356 20 375 35 35 110 16 110
-28 0 -12 4 -12 23 2 84 62 179 73 265 30z m2697 1 c28 -27 30 -37 14 -68 -18
-34 -30 -38 -96 -31 -49 5 -68 3 -88 -10 -45 -29 -50 -51 -55 -237 -4 -156 -7
-179 -24 -198 -24 -27 -70 -27 -96 -1 -19 19 -20 33 -20 270 0 237 1 251 20
270 37 37 110 15 110 -33 0 -19 2 -19 28 6 62 60 164 76 207 32z m1177 -8 c52
-31 80 -59 107 -113 61 -117 44 -273 -40 -369 -75 -86 -199 -109 -302 -57
l-55 28 -4 -112 c-2 -93 -6 -116 -22 -133 -24 -27 -70 -27 -96 -1 -19 19 -20
33 -20 380 0 347 1 361 20 380 11 11 32 20 47 20 29 0 63 -25 63 -47 0 -18 15
-16 31 4 49 58 189 69 271 20z m644 0 c103 -52 157 -145 158 -268 0 -63 -5
-86 -28 -132 -55 -113 -164 -174 -295 -165 -112 8 -196 64 -242 163 -65 136
-20 313 97 386 64 39 105 50 184 46 56 -3 88 -10 126 -30z m-3902 -5 c31 -16
56 -25 56 -20 0 4 9 17 20 28 24 24 67 26 92 3 17 -15 18 -37 18 -271 0 -285
-1 -292 -67 -292 -26 0 -37 6 -51 29 l-17 29 -28 -24 c-63 -54 -194 -57 -275
-7 -53 32 -106 105 -123 166 -17 62 -7 184 19 233 73 142 220 194 356 126z
m2302 7 c17 -19 20 -42 24 -211 5 -184 6 -190 28 -209 52 -42 139 -35 176 14
19 26 21 45 26 214 5 168 7 186 24 199 26 19 65 18 88 -3 16 -14 18 -35 18
-208 0 -189 0 -192 -27 -246 -46 -89 -122 -125 -248 -117 -78 5 -116 21 -163
69 -52 54 -62 100 -62 301 0 165 1 179 20 198 26 26 72 26 96 -1z m-5456 -274
l0 -215 -3395 0 -3395 0 0 215 0 215 3395 0 3395 0 0 -215z"/>
<path d="M14254 5299 c-69 -20 -123 -120 -110 -203 27 -164 240 -200 307 -52
42 92 11 200 -71 243 -46 24 -75 27 -126 12z"/>
<path d="M14935 5297 c-86 -40 -121 -163 -72 -257 12 -24 34 -53 49 -63 39
-29 115 -33 158 -9 103 56 113 245 17 314 -36 26 -111 33 -152 15z"/>
<path d="M18815 5303 c-96 -24 -144 -161 -92 -263 42 -83 119 -110 199 -71
122 59 124 263 3 321 -40 20 -69 23 -110 13z"/>
<path d="M19445 5296 c-59 -25 -105 -104 -105 -176 0 -14 9 -43 19 -65 78
-173 310 -116 311 76 0 124 -119 211 -225 165z"/>
<path d="M15569 5278 c-108 -62 -105 -260 5 -312 75 -36 161 -11 201 59 33 55
34 141 4 195 -42 74 -138 101 -210 58z"/>
</g>
</svg>
